# xmcd CD database file
#
# Track frame offsets:
#	150
#	9218
#	27580
#	53608
#	68863
#	89800
#	127943
#	151133
#	179980
#	197490
#	222108
#
# Disc length: 3214 seconds
#
# Revision: 2
# Processed by: cddbd v1.4PL0 Copyright (c) Steve Scherf et al.
# Submitted via: CDex 1.40Release
#
DISCID=930c8c0b
DTITLE=Henderson, Bugs and the Shufflekings - American Music
DYEAR=1993
DGENRE=Blues
TTITLE0=The Blackhawk Walk
TTITLE1=Dance Till the Moon Go Down
TTITLE2=Tain't Nobody's Bizness If I Do
TTITLE3=Back To Louisiana
TTITLE4=Big Legged Woman
TTITLE5=Honky Tonk
TTITLE6=She Thinks I Still Care
TTITLE7=Rocket In My Pocket
TTITLE8=Tore Down
TTITLE9=American Music
TTITLE10=Shuffle King
EXTD=YEAR: 1993 ID3G: 0
EXTT0=
EXTT1=
EXTT2=
EXTT3=
EXTT4=
EXTT5=
EXTT6=
EXTT7=
EXTT8=
EXTT9=
EXTT10=
PLAYORDER=
